<?xml version="1.0" standalone="no"?>
<!DOCTYPE svg PUBLIC "-//W3C//DTD SVG 20010904//EN"
 "http://www.w3.org/TR/2001/REC-SVG-20010904/DTD/svg10.dtd">
<svg version="1.0" xmlns="http://www.w3.org/2000/svg"
 width="260.000000pt" height="260.000000pt" viewBox="0 0 260.000000 260.000000"
 preserveAspectRatio="xMidYMid meet">
<metadata>
Created by potrace 1.11, written by Peter Selinger 2001-2013
</metadata>
<g transform="translate(0.000000,260.000000) scale(0.100000,-0.100000)"
fill="#000000" stroke="none">
<path d="M645 1299 c-352 -351 -635 -639 -630 -640 6 -1 297 -2 648 -3 l637
-1 1 25 c0 33 0 1186 0 1228 -1 17 -4 31 -8 31 -5 -1 -296 -289 -648 -640z"/>
<path d="M1953 1302 c-354 -351 -643 -640 -643 -642 0 -7 1279 -5 1285 2 3 3
4 291 3 641 l-3 636 -642 -637z"/>
</g>
</svg>
